<?xml version="1.0" encoding="utf-8"?>
<!-- Generator: Adobe Illustrator 26.2.1, SVG Export Plug-In . SVG Version: 6.00 Build 0)  -->
<svg version="1.1" id="Layer_1" xmlns="http://www.w3.org/2000/svg" xmlns:xlink="http://www.w3.org/1999/xlink" x="0px" y="0px"
	 viewBox="140 400 830 300" >
<style type="text/css">
	.st0{fill:#FFFFFF;}
</style>
<g>
	<path class="st0" d="M192.9,425.4h-6.5c-2.1,0-2.4,0.3-4.8,2.7c-1.3,1.3-21,21.2-21,21.2v-33.5c0-1.1-0.6-1.8-1.8-1.8h-10
		c-1.1,0-1.8,0.6-1.8,1.8v4.5c0,1.1,0.6,1.8,1.8,1.8h3.7v41.3h-3.7c-1.1,0-1.8,0.6-1.8,1.8v4.5c0,1.1,0.6,1.8,1.8,1.8h15.5
		c1.1,0,1.8-0.6,1.8-1.8v-4.5c0-1.1-0.6-1.8-1.8-1.8h-3.7V460l8-8l13.9,17.1c1.8,2.4,1.8,2.4,4.5,2.4h6.1c1.1,0,1.8-0.6,1.8-1.8
		v-4.5c0-1.1-0.6-1.8-1.8-1.8H188l-13.9-17.1l12.6-12.9h6.2c1.1,0,1.8-0.6,1.8-1.6v-4.6C194.7,426,194.2,425.4,192.9,425.4"/>
	<path class="st0" d="M247.5,463.3h-3.7v-19.6c0-11.6-7.3-19.3-18.8-19.3c-5.3,0-9.7,1.6-13.1,4.8v-2.1c0-1.1-0.6-1.8-1.8-1.8h-10
		c-1.1,0-1.8,0.6-1.8,1.8v4.5c0,1.1,0.6,1.8,1.8,1.8h3.7v30h-3.7c-1.1,0-1.8,0.6-1.8,1.8v4.5c0,1.1,0.6,1.8,1.8,1.8h15.3
		c1.1,0,1.8-0.6,1.8-1.8v-4.5c0-1.1-0.6-1.8-1.8-1.8h-3.5V445c0-7.5,5.3-12.9,12.6-12.9c7,0,11.3,4.6,11.3,12.3v19h-3.7
		c-1.1,0-1.8,0.6-1.8,1.8v4.5c0,1.1,0.6,1.8,1.8,1.8h15.3c1.1,0,1.8-0.6,1.8-1.8v-4.5C249.2,464,248.6,463.3,247.5,463.3"/>
	<path class="st0" d="M272.3,424.4c-13.2,0-23.4,10.5-23.4,23.9c0,13.2,10.2,23.8,23.3,23.8c13.2,0,23.6-10.5,23.6-23.9
		C295.8,434.9,285.6,424.4,272.3,424.4 M272.3,464.4c-8.5,0-15.1-7.2-15.1-16.1c0-9.1,6.4-15.9,15-15.9c8.5,0,15.1,7.2,15.1,16.1
		C287.5,457.6,280.9,464.4,272.3,464.4"/>
	<path class="st0" d="M364.2,425.4h-15.8c-1.1,0-1.8,0.6-1.8,1.8v4.5c0,1.1,0.6,1.8,1.8,1.8h3.5l-7.5,24.4l-10.7-31.1
		c-0.3-0.8-1.1-1.4-1.9-1.4h-3.2c-1,0-1.6,0.5-1.9,1.4l-10.5,30.9l-7.5-24.2h3.5c1.1,0,1.8-0.6,1.8-1.8v-4.5c0-1.1-0.6-1.8-1.8-1.8
		h-15.9c-1.1,0-1.8,0.6-1.8,1.8v4.5c0,1.1,0.6,1.8,1.8,1.8h3.8l12.4,36.7c0.3,0.8,1.1,1.3,1.9,1.3h3.3c0.8,0,1.6-0.5,1.9-1.4
		l10.5-30.1l10.4,30.1c0.3,0.8,1.1,1.4,1.9,1.4h3.3c0.8,0,1.6-0.5,1.9-1.3l12.6-36.7h3.7c1.1,0,1.8-0.6,1.8-1.8v-4.5
		C365.8,426,365.3,425.4,364.2,425.4"/>
	<path class="st0" d="M386.5,463.3h-3.7v-36.2c0-1.1-0.6-1.8-1.8-1.8h-10c-1.1,0-1.8,0.6-1.8,1.8v4.5c0,1.1,0.6,1.8,1.8,1.8h3.7v30
		H368c-1.1,0-1.8,0.6-1.8,1.8v4.5c0,1.1,0.6,1.8,1.8,1.8h18.5c1.1,0,1.8-0.6,1.8-1.8v-4.5C388.2,464,387.6,463.3,386.5,463.3"/>
	<path class="st0" d="M422.2,447.9h-4.5c-1.1,0-1.8,0.6-1.8,1.8v8.5c0,2.9-2.1,5.9-5.6,5.9c-4.3,0-6.2-1.8-6.2-6.1v-24.6h10.7
		c1.1,0,1.8-0.6,1.8-1.8v-4.5c0-1.1-0.6-1.8-1.8-1.8h-10.7v-9.6c0-1.1-0.6-1.8-1.8-1.8h-4.6c-1.1,0-1.8,0.6-1.8,1.8v9.6h-4.9
		c-1.1,0-1.8,0.6-1.8,1.8v4.5c0,1.1,0.6,1.8,1.8,1.8h4.9v25.2c0,8.3,5.4,13.6,13.7,13.6c8.6,0,14.2-5.1,14.2-13.1v-9.2
		C424,448.5,423.3,447.9,422.2,447.9"/>
	<path class="st0" d="M378.7,419.6c2.9,0,5.1-2.2,5.1-5.1s-2.2-5.1-5.1-5.1s-5.1,2.2-5.1,5.1C373.6,417.2,375.8,419.6,378.7,419.6"
		/>
</g>
<g>
	<path class="st0" d="M239.6,578v-85.4h35.9c26.9,0,46.2,16.1,46.2,42.6c0,26.5-19.3,42.8-46.1,42.8H239.6z M261.7,558.8h13.8
		c15,0,23.7-10.9,23.7-23.6c0-13.2-7.9-23.4-23.6-23.4h-14V558.8z"/>
	<path class="st0" d="M330.1,578v-85.4h62.6v18.6h-40.6v14.2h28.2v18.7h-28.2v15.4h40.6V578H330.1z"/>
	<path class="st0" d="M402.5,522.3l79-29.7v23.1l-56.9,19.4l56.9,19.5v23.1l-79-29.8V522.3z"/>
	<path class="st0" d="M494.2,578v-85.4h62.6v18.6h-40.6v14.2h28.2v18.7h-28.2v15.4h40.6V578H494.2z"/>
	<path class="st0" d="M567.5,578v-85.4h22v66.2h34.3V578H567.5z"/>
	<path class="st0" d="M670.7,491.2c26.1,0,45.6,18.2,45.6,44.2c0,26-19.5,44.2-45.6,44.2S625,561.4,625,535.4
		C625,509.4,644.6,491.2,670.7,491.2z M670.7,510.7c-14.2,0-23.3,10.8-23.3,24.7c0,13.8,9.1,24.7,23.3,24.7
		c14.1,0,23.2-10.9,23.2-24.7C693.9,521.4,684.8,510.7,670.7,510.7z"/>
	<path class="st0" d="M724.3,578.1v-85.4H767c19.2,0,29.7,12.9,29.7,28.4c0,15.4-10.5,28-29.7,28h-20.7v28.9H724.3z M764.1,511.3
		h-17.8v19.2h17.8c5.9,0,10.2-3.7,10.2-9.5C774.3,515.1,770,511.3,764.1,511.3z"/>
	<path class="st0" d="M804.2,578.1v-85.4h62.6v18.6h-40.6v14.2h28.2v18.7h-28.2v15.4h40.6v18.6H804.2z"/>
	<path class="st0" d="M923.8,578.1l-14.3-28.9h-11.3v28.9h-22v-85.4h42.8c19,0,29.7,12.6,29.7,28.4c0,14.9-9.1,22.8-17,25.6
		l17.4,31.4H923.8z M915.6,511.3h-17.4v19.2h17.4c5.8,0,10.6-3.7,10.6-9.6S921.3,511.3,915.6,511.3z"/>
	<path class="st0" d="M338.7,656.4c6.2,6.2,15.6,11.3,27.3,11.3c7.6,0,12.2-3.2,12.2-7.3c0-4.9-5.5-6.8-14.6-8.7
		c-14.1-2.8-33.8-6.4-33.8-26.7c0-14.4,12.2-26.8,34.1-26.8c13.7,0,25.6,4.1,34.7,11.9l-12,15.8c-7.2-5.9-16.5-8.8-24.1-8.8
		c-7.3,0-10.1,2.9-10.1,6.7c0,4.5,5.3,6,14.7,7.8c14.1,3,33.6,7.1,33.6,26.4c0,17.2-12.7,28.6-35.6,28.6c-17.3,0-29.3-5.4-37.9-13.6
		L338.7,656.4z"/>
	<path class="st0" d="M408.4,599.5h22.4v50.1c0,10.1,5.4,17.4,17.3,17.4c11.8,0,17.2-7.3,17.2-17.4v-50.1h22.4v50.8
		c0,21.3-12.2,36.3-39.6,36.3c-27.4,0-39.7-15.1-39.7-36.1V599.5z"/>
	<path class="st0" d="M574,685v-57.7L552.3,685h-9.7l-21.5-57.7V685h-22v-85.5h30.6l17.8,48.4l17.9-48.4H596V685H574z"/>
	<path class="st0" d="M683.6,685v-57.7L661.9,685h-9.7l-21.5-57.7V685h-22v-85.5h30.6l17.8,48.4l17.9-48.4h30.6V685H683.6z"/>
	<path class="st0" d="M716.6,685v-85.5h22V685H716.6z"/>
	<path class="st0" d="M771.5,685v-66.3h-24v-19.2h69.8v19.2h-23.8V685H771.5z"/>
</g>
</svg>
